<?xml version="1.0" encoding="UTF-8" standalone="no"?>
<svg
   height="16"
   viewBox="0 0 16 16"
   width="16"
   version="1.1"
   id="svg4"
   sodipodi:docname="gif.svg"
   inkscape:version="1.1.2 (b8e25be8, 2022-02-05)"
   inkscape:export-filename="/Users/bram/Development/GifMaker/icon.png"
   inkscape:export-xdpi="768"
   inkscape:export-ydpi="768"
   xmlns:inkscape="http://www.inkscape.org/namespaces/inkscape"
   xmlns:sodipodi="http://sodipodi.sourceforge.net/DTD/sodipodi-0.dtd"
   xmlns="http://www.w3.org/2000/svg"
   xmlns:svg="http://www.w3.org/2000/svg">
  <defs
     id="defs8" />
  <sodipodi:namedview
     id="namedview6"
     pagecolor="#505050"
     bordercolor="#eeeeee"
     borderopacity="1"
     inkscape:pageshadow="0"
     inkscape:pageopacity="0"
     inkscape:pagecheckerboard="0"
     showgrid="false"
     inkscape:zoom="25.712265"
     inkscape:cx="7.2922398"
     inkscape:cy="7.8756189"
     inkscape:window-width="1352"
     inkscape:window-height="815"
     inkscape:window-x="1080"
     inkscape:window-y="719"
     inkscape:window-maximized="0"
     inkscape:current-layer="text1234" />
  <path
     d="M 3,1 C 1.8954305,1 1,1.8954305 1,3 V 9 H 2 V 3 C 2,2.4477153 2.4477153,2 3,2 H 9 V 1 Z m 11.00027,6 v 6 c 0,0.552285 -0.447715,1 -1,1 h -6 v 1 h 6 c 1.104569,0 2,-0.895431 2,-2 V 7 Z"
     fill="#e0e0e0"
     fill-opacity="0.99608"
     id="path2"
     sodipodi:nodetypes="ssccssccscssccsscc" />
  <g
     aria-label="gif"
     id="text1234"
     style="font-size:5.33333px;line-height:1.25;font-family:Whacky_Joe;-inkscape-font-specification:Whacky_Joe;fill:#e0e0e0;fill-opacity:0.996078">
    <path
       d="M 4.1124218,5.4277697 H 6.3346426 V 5.8722138 H 6.7790868 V 8.9833231 H 6.3346426 V 9.8722115 H 5.8901985 V 10.316656 H 3.2235334 V 9.8722115 H 2.7790892 V 8.9833231 H 3.6679776 V 9.4277673 H 5.0013101 V 8.9833231 H 5.4457543 V 8.5388789 H 3.6679776 V 8.0944347 H 3.2235334 V 6.316658 H 3.6679776 V 5.8722138 H 4.1124218 Z M 4.5568659,6.316658 V 6.7611022 H 4.1124218 V 7.2055464 H 4.5568659 V 7.6499906 H 5.4457543 V 7.2055464 H 5.8901985 V 6.7611022 H 5.4457543 V 6.316658 Z"
       id="path21334" />
    <path
       d="M 8.5603359,4.9833255 H 9.4492242 V 5.8722138 H 8.5603359 Z M 8.1158917,6.316658 H 9.0047801 V 8.5388789 H 8.5603359 V 9.8722115 H 8.1158917 V 10.316656 H 7.2270033 V 8.5388789 H 7.6714475 V 6.7611022 h 0.4444442 z"
       id="path21336" />
    <path
       d="m 10.782557,5.4277697 h 2.222221 v 0.4444441 h 0.444444 V 7.2055464 H 12.560333 V 6.7611022 H 12.115889 V 6.316658 h -0.444444 v 0.4444442 h -0.444444 v 0.8888884 h 0.888888 V 8.5388789 H 11.227001 V 9.4277673 H 10.782557 V 10.316656 H 9.8936684 V 8.5388789 H 10.338113 V 8.0944347 H 9.8936684 V 7.2055464 H 10.338113 V 5.8722138 h 0.444444 z"
       id="path21338" />
  </g>
</svg>
