<?xml version="1.0" encoding="UTF-8" standalone="no"?>
<svg
   height="16"
   viewBox="0 0 16 16"
   width="16"
   version="1.1"
   id="svg52"
   sodipodi:docname="GifRectangle.svg"
   inkscape:version="1.1.2 (b8e25be8, 2022-02-05)"
   xmlns:inkscape="http://www.inkscape.org/namespaces/inkscape"
   xmlns:sodipodi="http://sodipodi.sourceforge.net/DTD/sodipodi-0.dtd"
   xmlns="http://www.w3.org/2000/svg"
   xmlns:svg="http://www.w3.org/2000/svg">
  <defs
     id="defs56" />
  <sodipodi:namedview
     id="namedview54"
     pagecolor="#505050"
     bordercolor="#eeeeee"
     borderopacity="1"
     inkscape:pageshadow="0"
     inkscape:pageopacity="0"
     inkscape:pagecheckerboard="0"
     showgrid="false"
     inkscape:zoom="18.910507"
     inkscape:cx="6.5307608"
     inkscape:cy="5.6846703"
     inkscape:window-width="1352"
     inkscape:window-height="815"
     inkscape:window-x="1080"
     inkscape:window-y="719"
     inkscape:window-maximized="1"
     inkscape:current-layer="svg52" />
  <path
     d="m1 1v2h2v-2zm3 0v2h8v-2zm9 0v2h2v-2zm-12 3v8h2v-8zm12 0v8h2v-8zm-12 9v2h2v-2zm3 0v2h8v-2zm9 0v2h2v-2z"
     fill="#8eef97"
     id="path50" />
  <path
     d="M 8.7273492,5.3330521 A 1.4546988,1.4546988 0 0 0 7.2783237,6.6798122 1.4546988,1.4546988 0 0 0 6.3028512,6.3028512 1.4546988,1.4546988 0 0 0 4.8481525,7.75755 1.4546988,1.4546988 0 0 0 5.8179516,9.1270518 v 1.0549962 c 0,0.268635 0.2162604,0.4849 0.4848996,0.4849 h 2.9093977 c 0.2686392,0 0.4848996,-0.216265 0.4848996,-0.4849 V 9.6971488 L 11.151848,10.666948 V 7.75755 L 9.6971485,8.7273488 V 7.8693194 A 1.4546988,1.4546988 0 0 0 10.182048,6.7877508 1.4546988,1.4546988 0 0 0 8.7273492,5.3330521 Z"
     fill="#8da5f3"
     id="path98"
     style="stroke-width:0.4849;fill:#8eef97;fill-opacity:1" />
</svg>
